<svg xmlns="http://www.w3.org/2000/svg" viewBox="0 0 200 200" fill="none"><path d="M55 90 h90 l-8 52 a14 14 0 0 1 -14 12 H77 a14 14 0 0 1 -14 -12 Z" stroke="#1E1E1E" stroke-width="6" stroke-linecap="round" stroke-linejoin="round" fill="none"/><line x1="64" y1="90" x2="60" y2="98" stroke="#7A8B6F" stroke-width="4" stroke-linecap="round" stroke-opacity="0"/><path d="M138 96 h18 a14 14 0 0 1 0 28 h-14" stroke="#3A3A3A" stroke-width="5" stroke-linecap="round" stroke-linejoin="round" fill="none"/><path d="M80 62 c 6 -10 14 -12 20 -8 c -2 10 -10 16 -20 8 Z" stroke="#7A8B6F" stroke-width="4" stroke-linecap="round" stroke-linejoin="round" fill="none"/><path d="M100 46 c 6 -10 14 -12 20 -8 c -2 10 -10 16 -20 8 Z" stroke="#7A8B6F" stroke-width="4" stroke-linecap="round" stroke-linejoin="round" fill="none" stroke-opacity="0.7"/></svg>