<svg xmlns="http://www.w3.org/2000/svg" viewBox="0 0 200 200" fill="none"><path d="M70 84 c -8 -22 14 -36 30 -26 c 8 -18 36 -14 38 6 c 16 0 18 22 4 24 h -68 c -10 0 -10 -4 -4 -4 Z" stroke="#1E1E1E" stroke-width="5" stroke-linecap="round" stroke-linejoin="round" fill="none"/><path d="M72 116 c -4 8 -7 12 -7 16 a7 7 0 0 0 14 0 c 0 -4 -3 -8 -7 -16 Z" stroke="#3A3A3A" stroke-width="4" stroke-linecap="round" stroke-linejoin="round" fill="none"/><path d="M100 116 c -4 8 -7 12 -7 16 a7 7 0 0 0 14 0 c 0 -4 -3 -8 -7 -16 Z" stroke="#3A3A3A" stroke-width="4" stroke-linecap="round" stroke-linejoin="round" fill="none"/><path d="M128 116 c -4 8 -7 12 -7 16 a7 7 0 0 0 14 0 c 0 -4 -3 -8 -7 -16 Z" stroke="#3A3A3A" stroke-width="4" stroke-linecap="round" stroke-linejoin="round" fill="none"/></svg>