<svg xmlns="http://www.w3.org/2000/svg" viewBox="0 0 320 200" fill="none"><circle cx="96" cy="52" r="10" stroke="#1E1E1E" stroke-width="4" fill="none"/><path d="M91 63 l -6 22 l -13 11" stroke="#1E1E1E" stroke-width="4" stroke-linecap="round" stroke-linejoin="round" fill="none"/><path d="M91 63 l 14 18 l -1 20" stroke="#1E1E1E" stroke-width="4" stroke-linecap="round" stroke-linejoin="round" fill="none"/><path d="M89 101 l -13 15 M104 101 l 12 16" stroke="#1E1E1E" stroke-width="4" stroke-linecap="round" stroke-linejoin="round" fill="none"/><circle cx="196" cy="62" r="8" stroke="#3A3A3A" stroke-width="4" fill="none"/><path d="M192 71 l -5 18 l -10 9" stroke="#3A3A3A" stroke-width="4" stroke-linecap="round" stroke-linejoin="round" fill="none"/><path d="M192 71 l 11 15 l -1 17" stroke="#3A3A3A" stroke-width="4" stroke-linecap="round" stroke-linejoin="round" fill="none"/><path d="M190 103 l -11 13 M202 103 l 10 13" stroke="#3A3A3A" stroke-width="4" stroke-linecap="round" stroke-linejoin="round" fill="none"/><line x1="28" y1="88" x2="52" y2="88" stroke="#4A4A4A" stroke-width="3" stroke-linecap="round" stroke-opacity="0.5"/><line x1="34" y1="108" x2="58" y2="108" stroke="#4A4A4A" stroke-width="3" stroke-linecap="round" stroke-opacity="0.4"/><line x1="240" y1="92" x2="264" y2="92" stroke="#4A4A4A" stroke-width="3" stroke-linecap="round" stroke-opacity="0.5"/><circle cx="268" cy="44" r="18" stroke="#B08A4E" stroke-width="4" fill="none" stroke-opacity="0.9"/></svg>