<svg xmlns="http://www.w3.org/2000/svg" viewBox="0 0 320 200" fill="none"><path d="M64.5 108 L56.1 76.5 L81.3 89.1" stroke="#1E1E1E" stroke-width="5.25" stroke-linecap="round" stroke-linejoin="round" fill="none"/><path d="M127.5 108 L135.9 76.5 L110.7 89.1" stroke="#1E1E1E" stroke-width="5.25" stroke-linecap="round" stroke-linejoin="round" fill="none"/><ellipse cx="96" cy="114.3" rx="33.6" ry="27.3" stroke="#1E1E1E" stroke-width="5.25" fill="none"/><circle cx="84.45" cy="108" r="4.2" stroke="#1E1E1E" stroke-width="0" fill="#1E1E1E"/><circle cx="107.55" cy="108" r="4.2" stroke="#1E1E1E" stroke-width="0" fill="#1E1E1E"/><path d="M87.6 120.6 c 5.25 5.25 11.55 5.25 16.8 0" stroke="#1E1E1E" stroke-width="3.1500000000000004" stroke-linecap="round" stroke-linejoin="round" fill="none"/><path d="M197.4 120 L192.44 101.4 L207.32 108.84" stroke="#3A3A3A" stroke-width="3.1" stroke-linecap="round" stroke-linejoin="round" fill="none"/><path d="M234.6 120 L239.56 101.4 L224.68 108.84" stroke="#3A3A3A" stroke-width="3.1" stroke-linecap="round" stroke-linejoin="round" fill="none"/><ellipse cx="216" cy="123.72" rx="19.84" ry="16.12" stroke="#3A3A3A" stroke-width="3.1" fill="none"/><circle cx="209.18" cy="120" r="2.48" stroke="#3A3A3A" stroke-width="0" fill="#3A3A3A"/><circle cx="222.82" cy="120" r="2.48" stroke="#3A3A3A" stroke-width="0" fill="#3A3A3A"/><path d="M211.04 127.44 c 3.1 3.1 6.82 3.1 9.92 0" stroke="#3A3A3A" stroke-width="1.8599999999999999" stroke-linecap="round" stroke-linejoin="round" fill="none"/><circle cx="160" cy="100" r="14" stroke="#A65B4B" stroke-width="4" fill="none" stroke-opacity="0.85"/><path d="M160 86 c 4 -6 11 -3 11 3 c 0 5 -7 9 -11 12 c -4 -3 -11 -7 -11 -12 c 0 -6 7 -9 11 -3 Z" stroke="#A65B4B" stroke-width="4" stroke-linecap="round" stroke-linejoin="round" fill="none" stroke-opacity="0.85"/></svg>