<svg xmlns="http://www.w3.org/2000/svg" viewBox="0 0 320 200" fill="none"><line x1="24" y1="140" x2="296" y2="140" stroke="#3A3A3A" stroke-width="5" stroke-linecap="round"/><path d="M110 108 h44 a22 14 0 0 1 -44 0 Z" stroke="#1E1E1E" stroke-width="4" stroke-linecap="round" stroke-linejoin="round" fill="none"/><circle cx="88" cy="54" r="9" stroke="#1E1E1E" stroke-width="4" fill="none"/><path d="M88 64 v26 M88 70 L78 86 M88 70 L98 86 M88 90 L80 112 M88 90 L96 112" stroke="#1E1E1E" stroke-width="4" stroke-linecap="round" stroke-linejoin="round" fill="none"/><circle cx="160" cy="48" r="8" stroke="#3A3A3A" stroke-width="4" fill="none"/><path d="M160 57 v22 M160 63 L151 77 M160 63 L169 77 M160 79 L153 98 M160 79 L167 98" stroke="#3A3A3A" stroke-width="4" stroke-linecap="round" stroke-linejoin="round" fill="none"/><circle cx="232" cy="54" r="9" stroke="#4A4A4A" stroke-width="4" fill="none"/><path d="M232 64 v26 M232 70 L222 86 M232 70 L242 86 M232 90 L224 112 M232 90 L240 112" stroke="#4A4A4A" stroke-width="4" stroke-linecap="round" stroke-linejoin="round" fill="none"/><path d="M204 112 h32 l-4 22 a5 5 0 0 1 -5 4 h-14 a5 5 0 0 1 -5 -4 Z" stroke="#1E1E1E" stroke-width="4" stroke-linecap="round" stroke-linejoin="round" fill="none"/></svg>