<svg xmlns="http://www.w3.org/2000/svg" viewBox="0 0 320 200" fill="none"><circle cx="76" cy="56" r="11" stroke="#1E1E1E" stroke-width="5" fill="none"/><path d="M70 68 l -8 28 l -16 14" stroke="#1E1E1E" stroke-width="5" stroke-linecap="round" stroke-linejoin="round" fill="none"/><path d="M70 68 l 18 22 l -2 26" stroke="#1E1E1E" stroke-width="5" stroke-linecap="round" stroke-linejoin="round" fill="none"/><path d="M68 116 l -18 20 M86 116 l 16 22" stroke="#1E1E1E" stroke-width="5" stroke-linecap="round" stroke-linejoin="round" fill="none"/><path d="M62 74 l -8 18" stroke="#3A3A3A" stroke-width="4" stroke-linecap="round" stroke-linejoin="round" fill="none" stroke-opacity="0.7"/><path d="M62 74 l -8 18" stroke="#3A3A3A" stroke-width="4" stroke-linecap="round" stroke-linejoin="round" fill="none" stroke-opacity="0.7"/><circle cx="196" cy="70" r="9" stroke="#3A3A3A" stroke-width="4" fill="none"/><path d="M191 80 l -6 24 l -13 12" stroke="#3A3A3A" stroke-width="4" stroke-linecap="round" stroke-linejoin="round" fill="none"/><path d="M191 80 l 15 20 l -1 22" stroke="#3A3A3A" stroke-width="4" stroke-linecap="round" stroke-linejoin="round" fill="none"/><path d="M189 122 l -15 17 M205 122 l 13 19" stroke="#3A3A3A" stroke-width="4" stroke-linecap="round" stroke-linejoin="round" fill="none"/><line x1="24" y1="96" x2="48" y2="96" stroke="#4A4A4A" stroke-width="3" stroke-linecap="round" stroke-opacity="0.5"/><line x1="18" y1="116" x2="42" y2="116" stroke="#4A4A4A" stroke-width="3" stroke-linecap="round" stroke-opacity="0.4"/><line x1="228" y1="92" x2="252" y2="92" stroke="#4A4A4A" stroke-width="3" stroke-linecap="round" stroke-opacity="0.5"/><line x1="234" y1="112" x2="258" y2="112" stroke="#4A4A4A" stroke-width="3" stroke-linecap="round" stroke-opacity="0.4"/><line x1="20" y1="172" x2="300" y2="172" stroke="#4A4A4A" stroke-width="4" stroke-linecap="round" stroke-opacity="0.5"/></svg>