<svg xmlns="http://www.w3.org/2000/svg" viewBox="0 0 320 200" fill="none"><line x1="20" y1="162" x2="300" y2="162" stroke="#3A3A3A" stroke-width="5" stroke-linecap="round"/><path d="M120 92 h70 a35 28 0 0 1 -70 0 Z" stroke="#1E1E1E" stroke-width="5" stroke-linecap="round" stroke-linejoin="round" fill="none"/><ellipse cx="155" cy="92" rx="35" ry="10" stroke="#1E1E1E" stroke-width="5" fill="none"/><line x1="190" y1="94" x2="214" y2="86" stroke="#1E1E1E" stroke-width="5" stroke-linecap="round"/><circle cx="214" cy="82" r="5" stroke="#1E1E1E" stroke-width="4" fill="none"/><path d="M118 100 c -16 4 -20 14 -12 22" stroke="#3A3A3A" stroke-width="5" stroke-linecap="round" stroke-linejoin="round" fill="none"/><path d="M140 66 c 3 -7 8 -9 12 -7 c -2 7 -8 10 -12 7 Z" stroke="#7A8B6F" stroke-width="3" stroke-linecap="round" stroke-linejoin="round" fill="none"/><path d="M162 60 c 3 -7 8 -9 12 -7 c -2 7 -8 10 -12 7 Z" stroke="#7A8B6F" stroke-width="3" stroke-linecap="round" stroke-linejoin="round" fill="none" stroke-opacity="0.75"/><path d="M60 128 h34 l-4 22 a6 6 0 0 1 -6 5 h-14 a6 6 0 0 1 -6 -5 Z" stroke="#1E1E1E" stroke-width="5" stroke-linecap="round" stroke-linejoin="round" fill="none"/><circle cx="48" cy="60" r="20" stroke="#B08A4E" stroke-width="4" fill="none"/><line x1="48" y1="34" x2="48" y2="26" stroke="#B08A4E" stroke-width="3" stroke-linecap="round" stroke-opacity="0.7"/></svg>